<svg width="39" height="39" viewBox="0 0 39 39" fill="none" xmlns="http://www.w3.org/2000/svg">
<path d="M21.8887 13.8613C21.769 13.7497 21.6729 13.6151 21.6063 13.4656C21.5397 13.3161 21.5039 13.1547 21.501 12.9911C21.4981 12.8275 21.5282 12.6649 21.5895 12.5132C21.6508 12.3614 21.7421 12.2235 21.8578 12.1078C21.9735 11.9921 22.1114 11.9009 22.2631 11.8396C22.4149 11.7783 22.5774 11.7482 22.7411 11.751C22.9047 11.7539 23.0661 11.7897 23.2156 11.8564C23.3651 11.923 23.4996 12.019 23.6112 12.1388L30.1112 18.6388C30.3395 18.8673 30.4677 19.177 30.4677 19.5C30.4677 19.823 30.3395 20.1327 30.1112 20.3613L23.6112 26.8613C23.4996 26.981 23.3651 27.077 23.2156 27.1437C23.0661 27.2103 22.9047 27.2461 22.7411 27.249C22.5774 27.2519 22.4149 27.2218 22.2631 27.1605C22.1114 27.0992 21.9735 27.0079 21.8578 26.8922C21.7421 26.7765 21.6508 26.6386 21.5895 26.4869C21.5282 26.3351 21.4981 26.1725 21.501 26.0089C21.5039 25.8453 21.5397 25.6839 21.6063 25.5344C21.6729 25.3849 21.769 25.2503 21.8887 25.1388L26.3087 20.7188H10.5625C10.2392 20.7188 9.92925 20.5904 9.70069 20.3618C9.47213 20.1332 9.34372 19.8232 9.34372 19.5C9.34372 19.1768 9.47213 18.8668 9.70069 18.6382C9.92925 18.4097 10.2392 18.2813 10.5625 18.2813H26.3087L21.8887 13.8613Z" fill="black"/>
</svg>
