<svg width="103" height="27" viewBox="0 0 103 27" fill="none" xmlns="http://www.w3.org/2000/svg">
<path d="M4.48 3.136C5.056 2.19733 5.80267 1.46133 6.72 0.927999C7.65867 0.394665 8.72533 0.127998 9.92 0.127998V4.832H8.736C7.328 4.832 6.26133 5.16267 5.536 5.824C4.832 6.48533 4.48 7.63733 4.48 9.28V18.112H0V0.383999H4.48V3.136ZM29.4175 8.864C29.4175 9.504 29.3748 10.08 29.2895 10.592H16.3295C16.4362 11.872 16.8842 12.8747 17.6735 13.6C18.4628 14.3253 19.4335 14.688 20.5855 14.688C22.2495 14.688 23.4335 13.9733 24.1375 12.544H28.9695C28.4575 14.2507 27.4762 15.6587 26.0255 16.768C24.5748 17.856 22.7935 18.4 20.6815 18.4C18.9748 18.4 17.4388 18.0267 16.0735 17.28C14.7295 16.512 13.6735 15.4347 12.9055 14.048C12.1588 12.6613 11.7855 11.0613 11.7855 9.248C11.7855 7.41333 12.1588 5.80267 12.9055 4.416C13.6522 3.02933 14.6975 1.96267 16.0415 1.216C17.3855 0.469332 18.9322 0.0959988 20.6815 0.0959988C22.3668 0.0959988 23.8708 0.458665 25.1935 1.184C26.5375 1.90933 27.5722 2.944 28.2975 4.288C29.0442 5.61067 29.4175 7.136 29.4175 8.864ZM24.7775 7.584C24.7562 6.432 24.3402 5.51467 23.5295 4.832C22.7188 4.128 21.7268 3.776 20.5535 3.776C19.4442 3.776 18.5055 4.11733 17.7375 4.8C16.9908 5.46133 16.5322 6.38933 16.3615 7.584H24.7775Z" fill="black"/>
<path d="M44.0155 -1.90735e-06C46.0848 -1.90735e-06 47.7275 0.693331 48.9435 2.08C50.1595 3.44533 50.7675 5.30133 50.7675 7.648V18.112H44.4955V8.48C44.4955 7.456 44.2288 6.656 43.6955 6.08C43.1622 5.48267 42.4475 5.184 41.5515 5.184C40.6128 5.184 39.8768 5.48267 39.3435 6.08C38.8102 6.656 38.5435 7.456 38.5435 8.48V18.112H32.2715V0.159998H38.5435V2.72C39.0982 1.90933 39.8448 1.25866 40.7835 0.767998C41.7222 0.255998 42.7995 -1.90735e-06 44.0155 -1.90735e-06ZM62.817 12.192L66.177 0.159998H72.865L66.689 18.112H58.881L52.705 0.159998H59.393L62.817 12.192ZM94.3183 0.159998L82.9263 26.656H76.1102L80.3983 17.344L73.0382 0.159998H80.0143L83.7903 10.336L87.4383 0.159998H94.3183ZM98.999 18.368C97.8897 18.368 96.9937 18.0693 96.311 17.472C95.6497 16.8533 95.319 16.0747 95.319 15.136C95.319 14.1973 95.6497 13.4187 96.311 12.8C96.9937 12.1813 97.8897 11.872 98.999 11.872C100.087 11.872 100.962 12.1813 101.623 12.8C102.306 13.4187 102.647 14.1973 102.647 15.136C102.647 16.0533 102.306 16.8213 101.623 17.44C100.962 18.0587 100.087 18.368 98.999 18.368Z" fill="#771336"/>
</svg>
